<svg width="77" height="80" viewBox="0 0 77 80" fill="none" xmlns="https://www.w3.org/2000/svg">
<path d="M40.888 23.84C43.832 23.84 46.424 24.304 48.664 25.232C50.936 26.128 52.904 27.456 54.568 29.216L50.584 34.544C49.208 33.104 47.72 32.032 46.12 31.328C44.552 30.592 42.76 30.224 40.744 30.224C38.984 30.224 37.72 30.512 36.952 31.088C36.184 31.664 35.8 32.368 35.8 33.2C35.8 33.872 36.104 34.448 36.712 34.928C37.352 35.376 38.376 35.76 39.784 36.08L45.112 37.28C48.28 38.016 50.6 39.088 52.072 40.496C53.544 41.904 54.28 43.776 54.28 46.112C54.28 48.352 53.704 50.256 52.552 51.824C51.4 53.36 49.816 54.528 47.8 55.328C45.784 56.096 43.48 56.48 40.888 56.48C37.688 56.48 34.76 55.968 32.104 54.944C29.448 53.888 27.336 52.512 25.768 50.816L29.752 45.296C30.936 46.672 32.536 47.824 34.552 48.752C36.568 49.648 38.648 50.096 40.792 50.096C44.12 50.096 45.784 49.12 45.784 47.168C45.784 46.496 45.528 45.936 45.016 45.488C44.536 45.008 43.64 44.608 42.328 44.288L36.472 42.992C34.68 42.608 33.08 42.064 31.672 41.36C30.296 40.656 29.208 39.728 28.408 38.576C27.608 37.392 27.208 35.92 27.208 34.16C27.208 32.176 27.752 30.416 28.84 28.88C29.928 27.312 31.496 26.08 33.544 25.184C35.592 24.288 38.04 23.84 40.888 23.84Z" fill="white"/>
<g filter="url(#filter0_d)">
<path d="M35.888 23.84C38.832 23.84 41.424 24.304 43.664 25.232C45.936 26.128 47.904 27.456 49.568 29.216L45.584 34.544C44.208 33.104 42.72 32.032 41.12 31.328C39.552 30.592 37.76 30.224 35.744 30.224C33.984 30.224 32.72 30.512 31.952 31.088C31.184 31.664 30.8 32.368 30.8 33.2C30.8 33.872 31.104 34.448 31.712 34.928C32.352 35.376 33.376 35.76 34.784 36.08L40.112 37.28C43.28 38.016 45.6 39.088 47.072 40.496C48.544 41.904 49.28 43.776 49.28 46.112C49.28 48.352 48.704 50.256 47.552 51.824C46.4 53.36 44.816 54.528 42.8 55.328C40.784 56.096 38.48 56.48 35.888 56.48C32.688 56.48 29.76 55.968 27.104 54.944C24.448 53.888 22.336 52.512 20.768 50.816L24.752 45.296C25.936 46.672 27.536 47.824 29.552 48.752C31.568 49.648 33.648 50.096 35.792 50.096C39.12 50.096 40.784 49.12 40.784 47.168C40.784 46.496 40.528 45.936 40.016 45.488C39.536 45.008 38.64 44.608 37.328 44.288L31.472 42.992C29.68 42.608 28.08 42.064 26.672 41.36C25.296 40.656 24.208 39.728 23.408 38.576C22.608 37.392 22.208 35.92 22.208 34.16C22.208 32.176 22.752 30.416 23.84 28.88C24.928 27.312 26.496 26.08 28.544 25.184C30.592 24.288 33.04 23.84 35.888 23.84Z" fill="white"/>
</g>
<defs>
<filter id="filter0_d" x="19.768" y="22.8401" width="32.8" height="36.64" filterUnits="userSpaceOnUse" color-interpolation-filters="sRGB">
<feFlood flood-opacity="0" result="BackgroundImageFix"/>
<feColorMatrix in="SourceAlpha" type="matrix" values="0 0 0 0 0 0 0 0 0 0 0 0 0 0 0 0 0 0 127 0" result="hardAlpha"/>
<feOffset dx="1" dy="1"/>
<feGaussianBlur stdDeviation="1"/>
<feColorMatrix type="matrix" values="0 0 0 0 0 0 0 0 0 0 0 0 0 0 0 0 0 0 0.63 0"/>
<feBlend mode="normal" in2="BackgroundImageFix" result="effect1_dropShadow"/>
<feBlend mode="normal" in="SourceGraphic" in2="effect1_dropShadow" result="shape"/>
</filter>
</defs>
</svg>
